<?xml version="1.0" standalone="no"?><!DOCTYPE svg PUBLIC "-//W3C//DTD SVG 1.1//EN" "http://www.w3.org/Graphics/SVG/1.1/DTD/svg11.dtd"><svg height="1200" node-id="1" sillyvg="true" template-height="1200" template-width="1200" version="1.1" viewBox="0 0 1200 1200" width="1200" xmlns="http://www.w3.org/2000/svg" xmlns:xlink="http://www.w3.org/1999/xlink"><defs node-id="74"><clipPath id="SVGID_2_" node-id="8"><path d="M 0.00 0.00 L 1200.00 0.00 L 1200.00 1200.00 L 0.00 1200.00 Z" fill="#000000" fill-rule="nonzero" node-id="77" stroke="none" target-height="1200" target-width="1200" target-x="0" target-y="0"></path></clipPath><clipPath id="SVGID_4_" node-id="20"><path d="M 769.40 915.80 L 1032.00 851.50 L 1034.90 850.60 L 1037.50 849.30 L 1039.90 847.60 L 1042.00 845.60 L 1043.80 843.30 L 1045.20 840.80 L 1046.30 838.10 L 1047.00 835.20 L 1047.20 832.20 L 1049.10 371.60 L 1049.00 369.70 L 1047.90 366.30 L 1046.40 364.00 L 1044.40 362.10 L 1041.30 360.30 L 1039.40 359.80 L 495.70 254.10 L 491.60 253.50 L 487.50 253.40 L 483.40 253.60 L 479.40 254.30 L 475.40 255.40 L 471.60 256.90 L 148.40 398.50 L 146.30 399.70 L 144.60 401.20 L 143.20 403.00 L 142.10 405.00 L 141.40 407.20 L 141.20 409.60 L 143.10 849.40 L 143.40 852.70 L 144.20 855.80 L 145.40 858.70 L 147.10 861.30 L 149.10 863.60 L 151.50 865.70 L 154.20 867.30 L 157.10 868.40 L 160.40 869.20 L 369.60 898.10 L 731.30 924.10 L 769.40 915.80 Z" fill="#000000" fill-rule="nonzero" node-id="81" stroke="none" target-height="670.69995" target-width="907.89996" target-x="141.2" target-y="253.4"></path></clipPath><clipPath id="SVGID_6_" node-id="30"><path d="M 228.90 549.30 L 228.90 666.40 L 229.10 669.40 L 229.80 672.30 L 230.90 675.10 L 232.40 677.70 L 234.30 680.00 L 236.50 682.10 L 286.60 721.60 L 289.60 723.60 L 292.70 725.00 L 296.10 725.70 L 299.50 726.00 L 302.90 725.60 L 306.40 724.60 L 399.10 688.00 L 399.10 431.90 L 286.70 476.30 L 283.70 477.80 L 281.00 479.70 L 278.70 482.10 L 233.50 536.50 L 231.50 539.30 L 230.10 542.50 L 229.20 545.80 L 228.90 549.30 Z" fill="#000000" fill-rule="nonzero" node-id="85" stroke="none" target-height="294.1" target-width="170.20001" target-x="228.9" target-y="431.9"></path></clipPath><clipPath id="SVGID_8_" node-id="68"><path d="M 739.20 1160.90 L 743.70 1209.90 L 273.20 1209.90 L 273.30 1185.40 L 273.70 1173.20 L 275.90 1141.70 L 277.90 1123.20 L 281.50 1097.20 L 283.90 1083.10 L 289.90 1054.70 L 293.60 1039.90 L 297.70 1025.30 L 302.40 1010.50 L 307.60 995.70 L 316.50 973.90 L 326.90 952.50 L 332.60 942.10 L 338.70 932.00 L 345.30 922.10 L 352.20 912.50 L 359.50 903.20 L 367.30 894.30 L 375.60 885.80 L 384.40 877.70 L 391.60 871.60 L 399.20 865.80 L 407.20 860.30 L 415.50 855.10 L 424.20 850.30 L 433.00 845.90 L 442.20 841.90 L 451.90 838.30 L 462.00 835.10 L 472.50 832.30 L 483.00 830.00 L 493.90 828.20 L 505.40 826.90 L 517.50 826.10 L 530.20 825.80 L 544.40 826.00 L 558.20 826.70 L 571.40 827.80 L 584.20 829.30 L 596.50 831.10 L 608.30 833.40 L 622.80 836.70 L 636.70 840.40 L 649.90 844.70 L 662.60 849.30 L 674.70 854.40 L 686.80 860.10 L 698.30 866.20 L 709.30 872.60 L 719.80 879.40 L 729.70 886.50 L 739.50 894.20 L 748.80 902.00 L 757.60 910.20 L 766.00 918.60 L 773.90 927.30 L 781.70 936.50 L 789.00 945.80 L 796.00 955.30 L 802.50 965.00 L 810.70 978.20 L 818.20 991.30 L 825.00 1004.40 L 831.40 1017.80 L 837.10 1030.80 L 847.00 1056.40 L 854.80 1080.20 L 859.70 1097.40 L 863.40 1112.40 L 868.70 1137.90 L 872.20 1160.90 L 739.20 1160.90 Z" fill="#000000" fill-rule="nonzero" node-id="89" stroke="none" target-height="384.10004" target-width="599" target-x="273.2" target-y="825.8"></path></clipPath></defs><path d="M 0.00 0.00 L 1200.00 0.00 L 1200.00 1200.00 L 0.00 1200.00 Z" fill="#d2f0fa" fill-rule="nonzero" hidden="true" node-id="93" stroke="none" target-height="1200" target-width="1200" target-x="0" target-y="0" visibility="hidden"></path><g node-id="258"><g node-id="259"><g clip-path="url(#SVGID_2_)" group-id="1,2" id="head_11_" node-id="10"><path d="M 150.50 384.40 L 260.00 262.30 L 263.00 260.00 L 266.40 259.00 L 270.10 259.30 L 367.90 285.90 L 150.50 384.40 Z" fill="#ffffff" fill-rule="nonzero" group-id="1,2,4" node-id="100" stroke="none" target-height="125.399994" target-width="217.4" target-x="150.5" target-y="259"></path><path d="M 150.50 389.90 L 147.90 389.20 L 146.80 388.50 L 145.20 386.00 L 145.10 383.20 L 146.40 380.70 L 255.90 258.60 L 258.10 256.60 L 260.50 255.10 L 263.10 254.10 L 265.90 253.50 L 268.70 253.50 L 271.60 254.00 L 369.30 280.60 L 371.80 282.00 L 373.20 284.50 L 373.20 287.30 L 371.70 289.80 L 369.30 291.20 L 366.40 291.20 L 268.70 264.60 L 267.40 264.40 L 265.10 265.10 L 154.60 388.00 L 153.30 389.10 L 152.00 389.70 L 150.50 389.90 Z" fill="#2e8ae6" fill-rule="nonzero" group-id="1,2,4" node-id="102" stroke="none" target-height="136.4" target-width="228.1" target-x="145.1" target-y="253.5"></path><path d="M 1038.30 346.90 L 891.60 260.60 L 886.80 257.90 L 881.80 255.60 L 876.60 253.90 L 871.20 252.60 L 386.60 159.30 L 385.60 159.30 L 384.30 160.40 L 384.30 162.10 L 385.00 162.80 L 472.20 233.90 L 1038.30 346.90 Z" fill="#ffffff" fill-rule="nonzero" group-id="1,2,5" node-id="107" stroke="none" target-height="187.59999" target-width="654.00006" target-x="384.3" target-y="159.3"></path><path d="M 1038.30 352.40 L 1035.60 351.60 L 888.70 265.20 L 884.30 262.80 L 879.80 260.70 L 875.10 259.10 L 870.20 258.00 L 399.20 167.30 L 475.70 229.70 L 476.70 230.80 L 477.70 233.40 L 477.30 236.10 L 476.50 237.40 L 474.10 239.10 L 471.30 239.40 L 470.00 239.00 L 468.70 238.20 L 380.30 165.90 L 379.50 164.60 L 378.70 161.40 L 379.30 158.20 L 381.40 155.50 L 384.30 154.00 L 385.90 153.80 L 387.60 153.90 L 872.30 247.20 L 878.10 248.60 L 883.80 250.50 L 889.20 252.90 L 894.50 255.90 L 1041.20 342.10 L 1043.20 344.20 L 1043.90 346.90 L 1043.70 348.30 L 1043.10 349.70 L 1042.20 350.80 L 1041.00 351.70 L 1038.30 352.40 Z" fill="#2e8ae6" fill-rule="nonzero" group-id="1,2,5" node-id="109" stroke="none" target-height="198.59999" target-width="665.2" target-x="378.7" target-y="153.8"></path><g clip-path="url(#SVGID_4_)" group-id="1,2,6,13" node-id="114"><path d="M 759.40 919.80 L 1030.60 852.20 L 1033.80 851.10 L 1036.70 849.70 L 1039.30 847.80 L 1041.60 845.60 L 1043.60 843.10 L 1045.10 840.30 L 1046.30 837.40 L 1047.00 834.20 L 1047.30 830.90 L 1049.10 369.80 L 1048.80 367.20 L 1048.00 364.90 L 1046.60 362.80 L 1044.80 361.00 L 1042.70 359.80 L 1040.20 359.00 L 495.70 253.10 L 491.60 252.50 L 487.50 252.40 L 483.40 252.60 L 479.40 253.30 L 475.40 254.40 L 471.60 255.90 L 148.40 397.60 L 146.30 398.70 L 144.60 400.20 L 143.10 402.00 L 142.10 404.00 L 141.40 406.20 L 141.20 408.60 L 142.10 846.90 L 142.50 850.90 L 143.40 854.60 L 144.90 858.00 L 146.90 861.20 L 149.30 864.00 L 152.20 866.40 L 155.50 868.40 L 159.00 869.80 L 162.90 870.60 L 371.60 899.10 L 759.40 919.80 Z" fill="#ffffff" fill-rule="nonzero" group-id="1,2,6,13" node-id="116" stroke="none" target-height="667.4" target-width="907.89996" target-x="141.2" target-y="252.4"></path><path d="M 759.40 931.80 L 370.00 911.00 L 161.30 882.50 L 156.90 881.60 L 152.80 880.30 L 148.90 878.50 L 145.30 876.20 L 142.00 873.50 L 139.10 870.50 L 136.50 867.20 L 134.30 863.60 L 132.50 859.70 L 131.20 855.60 L 130.40 851.40 L 130.10 846.90 L 129.20 408.60 L 129.40 405.40 L 130.00 402.40 L 132.30 396.70 L 135.90 391.90 L 138.20 389.80 L 140.70 388.00 L 143.60 386.60 L 466.70 244.90 L 471.70 243.00 L 476.80 241.60 L 482.00 240.70 L 487.30 240.40 L 492.60 240.60 L 497.90 241.30 L 1042.50 347.20 L 1046.00 348.20 L 1049.30 349.60 L 1052.20 351.60 L 1054.80 353.90 L 1056.90 356.60 L 1058.70 359.60 L 1060.00 362.80 L 1060.80 366.20 L 1061.10 369.90 L 1059.30 831.00 L 1059.10 834.90 L 1058.40 838.60 L 1057.40 842.10 L 1056.00 845.60 L 1054.20 848.80 L 1052.10 851.80 L 1046.90 857.10 L 1043.90 859.30 L 1040.70 861.10 L 1037.30 862.60 L 1033.50 863.80 L 762.30 931.40 L 759.40 931.80 Z M 372.70 887.10 L 758.30 907.70 L 1027.70 840.50 L 1029.90 839.70 L 1031.70 838.50 L 1033.20 837.00 L 1034.30 835.10 L 1035.00 833.10 L 1035.30 830.90 L 1037.10 370.60 L 490.50 264.50 L 487.60 264.40 L 482.00 265.00 L 476.40 266.90 L 153.20 408.50 L 154.10 846.90 L 154.30 848.80 L 155.50 852.40 L 156.50 854.00 L 159.20 856.60 L 162.60 858.30 L 164.50 858.70 L 372.70 887.10 Z" fill="#2e8ae6" fill-rule="nonzero" group-id="1,2,6,13" node-id="118" stroke="none" target-height="691.4" target-width="931.89996" target-x="129.2" target-y="240.4"></path></g><g clip-path="url(#SVGID_4_)" group-id="1,2,6,14" node-id="121"><path d="M 382.30 901.50 L 158.70 870.00 L 156.10 869.00 L 155.10 868.10 L 154.10 866.50 L 153.60 864.70 L 153.70 862.80 L 154.40 861.00 L 156.10 859.10 L 157.50 858.50 L 467.30 745.80 L 472.40 744.20 L 477.50 743.10 L 482.70 742.40 L 488.00 742.20 L 493.20 742.40 L 498.50 743.20 L 1028.70 840.70 L 1031.30 841.80 L 1032.20 842.70 L 1033.20 844.40 L 1033.60 846.30 L 1033.40 848.10 L 1032.60 849.90 L 1030.70 851.70 L 1029.30 852.30 L 1000.20 860.90 L 735.60 925.90 L 382.30 901.50 Z" fill="#5693b3" fill-opacity="0.3" fill-rule="nonzero" group-id="1,2,6,14" node-id="123" stroke="none" target-height="183.70001" target-width="880" target-x="153.6" target-y="742.2"></path></g><g clip-path="url(#SVGID_4_)" group-id="1,2,6,15" node-id="126"><path d="M 484.40 698.90 L 483.20 698.70 L 481.20 697.50 L 480.10 695.60 L 479.90 694.40 L 479.90 285.30 L 480.50 283.00 L 482.10 281.40 L 483.20 280.90 L 484.40 280.80 L 486.70 281.40 L 488.30 283.00 L 488.90 285.30 L 488.90 694.40 L 488.70 695.60 L 487.60 697.50 L 485.60 698.70 L 484.40 698.90 Z" fill="#c0d9f0" fill-rule="nonzero" group-id="1,2,6,15" node-id="128" stroke="none" target-height="418.10004" target-width="9" target-x="479.9" target-y="280.8"></path></g><g clip-path="url(#SVGID_4_)" group-id="1,2,6,16" node-id="131"><g clip-path="url(#SVGID_6_)" group-id="1,2,6,16,24" node-id="133"><path d="M 299.00 736.00 L 295.70 735.80 L 289.20 734.30 L 283.20 731.50 L 280.40 729.50 L 230.30 689.90 L 225.40 685.10 L 223.50 682.40 L 220.60 676.40 L 219.10 669.80 L 218.90 666.40 L 218.90 549.30 L 219.10 545.80 L 220.70 539.10 L 223.80 532.90 L 225.80 530.10 L 271.00 475.70 L 273.50 473.00 L 276.40 470.60 L 279.60 468.60 L 283.00 467.00 L 409.10 417.20 L 409.10 694.80 L 310.00 733.90 L 306.40 735.00 L 302.70 735.70 L 299.00 736.00 Z M 389.10 446.60 L 290.40 485.60 L 288.20 486.80 L 286.30 488.50 L 241.20 542.90 L 239.50 545.90 L 238.90 549.30 L 238.90 666.40 L 239.20 668.60 L 239.90 670.70 L 241.10 672.60 L 242.70 674.20 L 292.80 713.80 L 295.90 715.50 L 299.30 716.00 L 302.70 715.30 L 389.10 681.20 L 389.10 446.60 Z" fill="#2e8ae6" fill-rule="nonzero" group-id="1,2,6,16,24" node-id="135" stroke="none" target-height="318.8" target-width="190.20001" target-x="218.9" target-y="417.2"></path></g><g clip-path="url(#SVGID_6_)" group-id="1,2,6,16,25" node-id="138"><path d="M 343.60 503.60 L 343.60 637.40 L 411.40 691.10 L 516.40 649.60 L 516.40 389.70 L 397.50 436.60 Z" fill="#bfe0f0" fill-rule="nonzero" group-id="1,2,6,16,25" node-id="140" stroke="none" target-height="301.39996" target-width="172.80002" target-x="343.6" target-y="389.7"></path></g><g clip-path="url(#SVGID_6_)" group-id="1,2,6,16,26" node-id="143"><path d="M 346.00 523.00 L 344.60 522.80 L 343.30 522.20 L 342.20 521.30 L 341.40 520.00 L 341.00 517.40 L 342.00 515.00 L 342.80 514.10 L 384.30 496.10 L 385.60 496.00 L 388.00 497.00 L 389.60 499.00 L 390.00 501.60 L 389.00 504.00 L 388.20 504.90 L 348.00 522.60 L 346.00 523.00 Z" fill="#2e8ae6" fill-rule="nonzero" group-id="1,2,6,16,26" node-id="145" stroke="none" target-height="27" target-width="49" target-x="341" target-y="496"></path></g><g clip-path="url(#SVGID_6_)" group-id="1,2,6,16,27" node-id="148"><path d="M 346.00 564.10 L 343.30 563.30 L 342.30 562.40 L 341.50 561.20 L 341.00 558.60 L 341.90 556.20 L 342.80 555.30 L 384.20 536.40 L 385.50 536.40 L 387.90 537.30 L 389.60 539.30 L 390.00 541.90 L 389.10 544.30 L 388.20 545.20 L 348.10 563.70 L 346.00 564.10 Z" fill="#2e8ae6" fill-rule="nonzero" group-id="1,2,6,16,27" node-id="150" stroke="none" target-height="27.699951" target-width="49" target-x="341" target-y="536.4"></path></g><g clip-path="url(#SVGID_6_)" group-id="1,2,6,16,28" node-id="153"><path d="M 346.00 605.20 L 343.30 604.50 L 342.30 603.60 L 341.50 602.30 L 341.00 599.80 L 341.90 597.40 L 342.70 596.40 L 384.20 577.10 L 385.50 577.00 L 387.80 577.90 L 389.50 579.90 L 390.00 582.50 L 389.10 584.80 L 388.30 585.80 L 348.10 604.80 L 346.00 605.20 Z" fill="#2e8ae6" fill-rule="nonzero" group-id="1,2,6,16,28" node-id="155" stroke="none" target-height="28.200012" target-width="49" target-x="341" target-y="577"></path></g><g clip-path="url(#SVGID_6_)" group-id="1,2,6,16,29" node-id="158"><path d="M 366.00 637.30 L 363.30 636.60 L 362.30 635.70 L 361.50 634.40 L 361.00 631.90 L 361.90 629.50 L 362.70 628.50 L 384.50 618.40 L 385.80 618.30 L 388.10 619.20 L 389.80 621.20 L 390.30 623.80 L 389.40 626.20 L 388.60 627.10 L 368.10 636.90 L 366.00 637.30 Z" fill="#2e8ae6" fill-rule="nonzero" group-id="1,2,6,16,29" node-id="160" stroke="none" target-height="19" target-width="29.299988" target-x="361" target-y="618.3"></path></g><g clip-path="url(#SVGID_6_)" group-id="1,2,6,16,30" node-id="163"><path d="M 412.30 699.10 L 348.10 648.40 L 345.20 645.80 L 342.90 642.90 L 341.00 639.60 L 339.70 636.20 L 338.80 632.60 L 338.50 628.70 L 338.50 511.70 L 338.70 508.80 L 340.00 503.40 L 342.40 498.30 L 344.10 496.00 L 396.70 430.60 L 404.50 436.90 L 351.90 502.30 L 350.40 504.40 L 349.40 506.70 L 348.80 509.10 L 348.50 511.70 L 348.50 628.80 L 348.70 631.00 L 350.00 635.30 L 352.50 639.00 L 354.20 640.50 L 418.50 691.20 L 412.30 699.10 Z" fill="#2e8ae6" fill-rule="nonzero" group-id="1,2,6,16,30" node-id="165" stroke="none" target-height="268.49997" target-width="80" target-x="338.5" target-y="430.6"></path></g></g><g clip-path="url(#SVGID_4_)" group-id="1,2,6,17" node-id="171"><path d="M 280.50 382.60 L 280.50 421.70 L 280.70 422.70 L 281.40 423.40 L 282.30 423.70 L 283.30 423.60 L 312.60 412.00 L 313.70 410.90 L 313.90 410.10 L 313.90 370.10 L 313.60 369.10 L 312.90 368.40 L 312.00 368.10 L 311.00 368.20 L 281.70 380.70 L 281.10 381.20 L 280.50 382.60 Z" fill="#5693b3" fill-opacity="0.3" fill-rule="evenodd" group-id="1,2,6,17,31" node-id="173" stroke="none" target-height="55.600006" target-width="33.399994" target-x="280.5" target-y="368.1"></path><path d="M 231.30 444.20 L 260.60 432.60 L 261.50 431.80 L 261.90 430.70 L 261.90 392.20 L 261.60 391.20 L 261.00 390.50 L 260.10 390.20 L 259.10 390.40 L 229.70 402.90 L 228.70 403.90 L 228.50 442.30 L 228.70 443.30 L 229.40 443.90 L 230.20 444.30 L 231.30 444.20 Z" fill="#5693b3" fill-opacity="0.3" fill-rule="evenodd" group-id="1,2,6,17,31" node-id="175" stroke="none" target-height="54.099976" target-width="33.399994" target-x="228.5" target-y="390.2"></path><path d="M 180.20 464.30 L 209.60 452.70 L 210.50 452.00 L 210.90 450.80 L 210.90 413.90 L 210.60 412.90 L 209.90 412.20 L 209.10 411.90 L 208.10 412.10 L 178.70 424.60 L 177.60 425.60 L 177.50 462.40 L 177.70 463.40 L 178.40 464.10 L 179.20 464.40 L 180.20 464.30 Z" fill="#5693b3" fill-opacity="0.3" fill-rule="evenodd" group-id="1,2,6,17,31" node-id="177" stroke="none" target-height="52.5" target-width="33.399994" target-x="177.5" target-y="411.9"></path></g><g clip-path="url(#SVGID_4_)" group-id="1,2,6,18" node-id="181"><path d="M 830.70 689.30 L 828.10 688.80 L 826.90 688.00 L 791.60 659.90 L 789.60 658.70 L 785.40 657.50 L 780.90 657.60 L 778.70 658.30 L 736.60 672.70 L 733.50 672.90 L 730.70 671.60 L 729.70 670.40 L 729.00 669.00 L 728.70 667.40 L 729.30 664.40 L 730.10 663.10 L 731.20 662.10 L 732.70 661.40 L 774.50 647.00 L 780.80 645.50 L 783.90 645.40 L 790.10 646.20 L 795.90 648.50 L 799.00 650.40 L 834.40 678.60 L 835.50 679.80 L 836.30 681.20 L 836.60 684.20 L 836.20 685.60 L 834.40 688.10 L 833.20 688.80 L 830.70 689.30 Z" fill="#e84a2c" fill-rule="nonzero" group-id="1,2,6,18" node-id="183" stroke="none" target-height="43.899963" target-width="107.89996" target-x="728.7" target-y="645.4"></path><path d="M 830.70 692.30 L 828.60 692.10 L 826.80 691.40 L 825.10 690.40 L 789.90 662.30 L 787.50 661.10 L 784.90 660.50 L 782.30 660.50 L 779.70 661.10 L 737.60 675.50 L 735.20 676.00 L 732.90 675.80 L 730.70 675.10 L 728.80 673.80 L 727.20 672.10 L 726.10 670.00 L 725.70 667.60 L 725.80 665.30 L 726.60 663.10 L 727.80 661.20 L 729.60 659.60 L 731.70 658.50 L 773.60 644.20 L 779.70 642.60 L 782.80 642.40 L 789.00 642.90 L 794.90 644.70 L 797.80 646.10 L 800.80 648.00 L 836.30 676.30 L 838.00 678.10 L 839.10 680.10 L 839.60 682.30 L 839.60 684.60 L 839.00 686.90 L 837.70 689.00 L 836.30 690.40 L 834.60 691.40 L 832.70 692.10 L 830.70 692.30 Z" fill="#f54431" fill-rule="nonzero" group-id="1,2,6,18" node-id="185" stroke="none" target-height="49.899963" target-width="113.89996" target-x="725.7" target-y="642.4"></path></g><g clip-path="url(#SVGID_4_)" group-id="1,2,6,19" node-id="188"><path d="M 992.90 494.20 L 799.10 511.20 L 794.20 511.40 L 789.40 510.90 L 784.60 509.90 L 780.00 508.30 L 544.90 409.00 L 543.10 408.50 L 539.60 408.60 L 536.70 410.20 L 535.50 411.40 L 534.00 414.50 L 533.80 416.40 L 533.80 515.20 L 534.10 520.10 L 534.90 524.90 L 536.40 529.40 L 538.30 533.80 L 540.80 537.80 L 543.70 541.60 L 547.10 545.00 L 550.90 548.00 L 555.10 550.60 L 644.80 597.90 L 649.30 600.00 L 654.10 601.40 L 658.90 602.30 L 663.90 602.50 L 776.00 601.60 L 780.40 601.70 L 788.90 602.80 L 797.30 605.20 L 801.30 606.90 L 880.50 642.80 L 888.00 645.30 L 895.70 646.30 L 903.60 645.80 L 984.90 632.30 L 988.00 631.50 L 990.90 630.20 L 993.50 628.60 L 995.80 626.60 L 997.80 624.30 L 999.40 621.60 L 1000.60 618.80 L 1001.30 615.80 L 1001.60 612.50 L 1001.60 502.20 L 1001.30 499.90 L 1000.40 498.00 L 999.00 496.30 L 997.20 495.10 L 995.20 494.40 L 992.90 494.20 Z" fill="#1c78d6" fill-rule="nonzero" group-id="1,2,6,19" node-id="190" stroke="none" target-height="237.79999" target-width="467.8" target-x="533.8" target-y="408.5"></path></g><g clip-path="url(#SVGID_4_)" group-id="1,2,6,20" node-id="193"><path d="M 717.40 561.10 L 713.00 560.50 L 710.80 559.70 L 620.40 518.70 L 617.90 517.30 L 615.70 515.50 L 614.00 513.40 L 612.60 511.00 L 611.60 508.50 L 611.10 505.80 L 611.00 503.10 L 611.50 500.30 L 612.50 497.50 L 613.90 495.00 L 615.70 492.90 L 617.80 491.10 L 620.10 489.70 L 622.70 488.80 L 625.40 488.20 L 628.10 488.20 L 630.90 488.60 L 633.60 489.60 L 724.00 530.60 L 726.50 532.00 L 728.70 533.80 L 730.40 535.90 L 731.80 538.30 L 732.80 540.80 L 733.30 543.50 L 733.40 546.20 L 732.90 549.00 L 732.00 551.70 L 730.30 554.50 L 728.30 556.80 L 725.90 558.60 L 723.20 560.00 L 720.40 560.80 L 717.40 561.10 Z" fill="#ffffff" fill-rule="nonzero" group-id="1,2,6,20" node-id="195" stroke="none" target-height="72.89996" target-width="122.400024" target-x="611" target-y="488.2"></path></g><g clip-path="url(#SVGID_4_)" group-id="1,2,6,21" node-id="198"><path d="M 854.70 586.10 L 850.00 585.30 L 845.80 583.10 L 842.50 579.80 L 840.40 575.50 L 839.90 573.10 L 839.70 570.30 L 840.10 567.70 L 840.90 565.30 L 842.10 563.00 L 843.60 561.00 L 845.50 559.20 L 847.60 557.80 L 850.00 556.80 L 852.70 556.20 L 926.70 546.10 L 929.50 546.00 L 932.10 546.30 L 934.50 547.10 L 936.80 548.30 L 938.80 549.80 L 940.60 551.70 L 942.00 553.80 L 943.00 556.20 L 943.60 558.90 L 943.70 561.70 L 943.40 564.20 L 942.60 566.70 L 941.40 569.00 L 939.90 571.00 L 938.00 572.80 L 935.90 574.20 L 933.50 575.20 L 930.80 575.80 L 854.70 586.10 Z" fill="#ffffff" fill-rule="nonzero" group-id="1,2,6,21" node-id="200" stroke="none" target-height="40.099976" target-width="104" target-x="839.7" target-y="546"></path></g><path d="M 1040.00 517.10 L 1069.90 557.30 L 1071.60 560.00 L 1072.80 563.00 L 1073.60 566.10 L 1073.90 569.30 L 1073.90 690.50 L 1073.60 693.50 L 1073.00 696.40 L 1071.90 699.10 L 1070.40 701.80 L 1039.00 747.50" fill="#5693b3" fill-opacity="0.3" fill-rule="nonzero" group-id="1,2,7" node-id="206" stroke="none" target-height="230.40002" target-width="34.900024" target-x="1039" target-y="517.1"></path><path d="M 1046.10 746.10 L 1037.80 740.40 L 1066.20 698.90 L 1067.70 696.30 L 1068.60 693.50 L 1068.90 690.50 L 1068.90 569.30 L 1068.10 564.50 L 1065.90 560.30 L 1038.30 523.10 L 1046.30 517.20 L 1073.90 554.30 L 1076.00 557.70 L 1077.60 561.40 L 1078.50 565.30 L 1078.90 569.30 L 1078.90 690.40 L 1078.60 694.20 L 1077.70 697.80 L 1076.40 701.30 L 1074.50 704.60 L 1046.10 746.10 Z" fill="#2e8ae6" fill-rule="nonzero" group-id="1,2" node-id="209" stroke="none" target-height="228.89996" target-width="41.099976" target-x="1037.8" target-y="517.2"></path><path d="M 578.30 190.30 L 688.20 281.80 L 689.70 283.40 L 690.80 285.20 L 691.50 287.20 L 691.80 289.40 L 693.80 437.30 L 694.00 438.80 L 694.80 439.90 L 695.90 440.80 L 697.20 441.20 L 698.60 441.20 L 700.00 440.60 L 739.30 414.60 L 740.60 414.00 L 742.00 414.00 L 743.30 414.40 L 744.50 415.30 L 781.70 457.00 L 782.90 457.90 L 784.30 458.30 L 785.70 458.20 L 787.10 457.50 L 822.60 430.70 L 823.80 430.00 L 825.10 429.90 L 826.40 430.10 L 827.60 430.90 L 876.10 473.50 L 877.60 474.40 L 879.10 474.50 L 880.50 474.10 L 881.70 473.30 L 882.50 472.00 L 882.80 470.40 L 877.40 324.30 L 877.00 322.20 L 876.30 320.20 L 875.10 318.40 L 873.50 316.90 L 748.40 224.40 L 745.90 222.80 L 743.20 221.60 L 740.30 220.80 L 578.30 190.30 Z" fill="#5693b3" fill-opacity="0.3" fill-rule="nonzero" group-id="1,2,8" node-id="213" stroke="none" target-height="284.2" target-width="304.5" target-x="578.3" target-y="190.3"></path><path d="M 727.70 402.20 L 522.90 114.40 L 521.80 111.70 L 522.10 108.80 L 523.80 106.40 L 526.40 105.00 L 529.30 105.10 L 531.80 106.50 L 749.30 310.60 L 750.90 315.10 L 736.70 400.10 L 727.70 402.20 Z" fill="#fccd11" fill-rule="nonzero" group-id="1,2,9" node-id="218" stroke="none" target-height="297.2" target-width="229.10004" target-x="521.8" target-y="105"></path><path d="M 1010.40 195.30 L 1009.20 194.40 L 1006.60 193.50 L 1003.90 194.00 L 1002.60 194.70 L 825.90 326.00 L 831.90 334.00 L 834.70 331.90 L 844.50 407.80 L 841.40 411.90 L 849.40 417.90 L 1010.90 203.10 L 1011.70 201.80 L 1012.10 199.10 L 1011.30 196.50 L 1010.40 195.30 Z" fill="#fccd11" fill-rule="nonzero" group-id="1,2,9" node-id="220" stroke="none" target-height="224.4" target-width="186.19995" target-x="825.9" target-y="193.5"></path><path d="M 740.10 303.80 L 723.70 393.10 L 723.40 396.60 L 723.60 400.00 L 724.50 403.30 L 725.90 406.40 L 727.80 409.30 L 730.30 411.80 L 784.70 459.10 L 786.60 460.30 L 788.50 461.10 L 790.60 461.50 L 792.80 461.40 L 794.80 460.80 L 796.80 459.80 L 845.90 427.10 L 848.60 424.40 L 850.10 421.00 L 850.20 417.30 L 835.30 318.70 L 834.60 316.20 L 833.50 314.10 L 832.00 312.10 L 830.10 310.60 L 827.90 309.40 L 825.50 308.70 L 751.60 295.70 L 748.10 295.70 L 744.90 296.90 L 742.30 299.10 L 741.30 300.40 L 740.10 303.80 Z" fill="#f54431" fill-rule="nonzero" group-id="1,2,9" node-id="222" stroke="none" target-height="165.79999" target-width="126.79999" target-x="723.4" target-y="295.7"></path><path d="M 157.40 214.50 L 158.20 218.40 L 159.00 219.80 L 160.60 221.50 L 162.60 222.90 L 165.70 223.70 L 215.00 219.70 L 217.50 219.20 L 219.80 218.30 L 221.90 216.90 L 223.70 215.10 L 225.20 213.00 L 226.10 210.70 L 226.60 208.30 L 226.70 205.70 L 222.40 158.80 L 221.00 155.90 L 219.40 154.20 L 217.50 152.90 L 216.00 152.40 L 212.70 152.10 L 210.30 152.60 L 208.20 153.80 L 206.50 155.30 L 205.20 157.30 L 204.50 159.60 L 204.40 162.10 L 207.60 199.10 L 207.20 200.50 L 205.80 201.20 L 165.80 204.80 L 163.40 205.30 L 161.30 206.40 L 159.60 207.90 L 158.30 209.80 L 157.60 212.00 L 157.40 214.50 Z" fill="#f54431" fill-rule="nonzero" group-id="1,2,10" node-id="227" stroke="none" target-height="71.59999" target-width="69.3" target-x="157.4" target-y="152.1"></path><path d="M 281.10 160.10 L 277.80 159.70 L 276.20 159.90 L 274.00 160.70 L 272.00 162.00 L 270.00 164.50 L 254.10 211.80 L 253.50 214.30 L 253.40 216.70 L 253.90 219.20 L 254.80 221.60 L 256.10 223.70 L 257.80 225.60 L 259.80 227.00 L 262.10 228.00 L 306.40 242.80 L 309.60 242.70 L 311.90 241.90 L 313.90 240.50 L 315.90 238.00 L 316.90 235.50 L 317.40 232.20 L 317.20 230.70 L 316.40 228.40 L 315.00 226.40 L 312.50 224.40 L 275.90 212.00 L 274.80 211.00 L 274.70 209.50 L 287.60 170.30 L 287.40 167.10 L 286.60 164.80 L 285.30 162.80 L 284.10 161.70 L 281.10 160.10 Z" fill="#f54431" fill-rule="nonzero" group-id="1,2,10" node-id="229" stroke="none" target-height="83.100006" target-width="64" target-x="253.4" target-y="159.7"></path><path d="M 228.90 264.30 L 251.90 299.30 L 254.50 301.20 L 256.70 302.00 L 259.10 302.20 L 262.30 301.50 L 263.80 300.70 L 265.70 299.10 L 267.00 297.10 L 267.80 294.90 L 268.00 292.50 L 267.70 290.10 L 266.60 287.90 L 240.80 246.90 L 239.30 244.90 L 237.50 243.20 L 235.30 241.90 L 232.90 241.00 L 230.40 240.70 L 227.90 240.80 L 225.40 241.40 L 223.20 242.50 L 183.50 268.00 L 181.60 270.60 L 180.80 272.90 L 180.60 275.30 L 181.30 278.40 L 182.20 280.20 L 183.80 282.10 L 185.80 283.40 L 188.00 284.20 L 190.40 284.50 L 192.70 284.10 L 195.00 283.10 L 226.20 263.70 L 227.70 263.50 L 228.90 264.30 Z" fill="#f54431" fill-rule="nonzero" group-id="1,2,10" node-id="231" stroke="none" target-height="61.500015" target-width="87.399994" target-x="180.6" target-y="240.7"></path></g></g><g clip-path="url(#SVGID_2_)" group-id="1,3" id="body_8_" node-id="61"><path d="M 738.20 1159.90 L 743.20 1209.90 L 828.20 1209.90 L 822.20 1157.90 Z" fill="#ffffff" fill-rule="nonzero" group-id="1,3,11" node-id="238" stroke="none" target-height="52" target-width="90" target-x="738.2" target-y="1157.9"></path><path d="M 833.80 1214.90 L 738.60 1214.90 L 732.70 1155.00 L 826.60 1152.80 L 833.80 1214.90 Z M 747.70 1204.90 L 822.50 1204.90 L 817.70 1163.00 L 743.70 1164.70 L 747.70 1204.90 Z" fill="#2e8ae6" fill-rule="nonzero" group-id="1,3,11" node-id="240" stroke="none" target-height="62.099976" target-width="101.099976" target-x="732.7" target-y="1152.8"></path><g clip-path="url(#SVGID_8_)" group-id="1,3,12,22" node-id="245"><path d="M 872.20 1160.90 L 870.50 1148.20 L 866.60 1126.60 L 863.40 1112.40 L 859.70 1097.40 L 854.80 1080.20 L 847.00 1056.40 L 842.20 1043.60 L 837.10 1030.90 L 831.40 1017.80 L 825.00 1004.50 L 818.20 991.30 L 810.70 978.20 L 802.50 965.00 L 796.00 955.40 L 789.00 945.90 L 781.70 936.50 L 773.90 927.30 L 766.00 918.60 L 757.60 910.20 L 748.80 902.00 L 739.50 894.20 L 729.70 886.50 L 719.80 879.40 L 709.30 872.60 L 698.30 866.20 L 686.80 860.10 L 674.70 854.40 L 662.60 849.30 L 649.90 844.70 L 636.70 840.40 L 622.80 836.70 L 608.30 833.40 L 596.50 831.10 L 584.20 829.30 L 571.40 827.80 L 558.20 826.70 L 544.40 826.10 L 530.20 825.80 L 518.90 826.00 L 508.20 826.70 L 497.90 827.70 L 488.00 829.10 L 478.50 830.90 L 468.90 833.20 L 459.70 835.70 L 450.90 838.60 L 442.40 841.80 L 434.30 845.30 L 424.20 850.30 L 414.60 855.60 L 405.50 861.40 L 396.90 867.60 L 388.50 874.20 L 380.50 881.20 L 372.90 888.50 L 365.70 896.10 L 358.80 904.10 L 352.30 912.30 L 346.10 920.80 L 340.30 929.60 L 333.00 941.60 L 326.20 953.90 L 319.90 966.40 L 314.20 979.30 L 309.00 992.20 L 304.20 1005.20 L 300.00 1018.80 L 295.60 1034.00 L 290.60 1053.30 L 285.60 1075.40 L 282.80 1089.70 L 280.70 1102.10 L 277.80 1122.90 L 274.70 1156.20 L 273.40 1181.30 L 273.20 1209.90 L 743.70 1209.90" fill="#1c78d6" fill-rule="nonzero" group-id="1,3,12,22" node-id="247" stroke="none" target-height="384.10004" target-width="599" target-x="273.2" target-y="825.8"></path></g><g clip-path="url(#SVGID_8_)" group-id="1,3,12,23" node-id="250"><path d="M 343.20 1042.50 L 345.00 1042.10 L 346.50 1041.20 L 347.70 1039.90 L 354.80 1020.70 L 360.20 1007.40 L 373.20 978.20 L 387.60 949.60 L 396.10 934.00 L 402.80 922.90 L 403.40 922.20 L 404.20 922.00 L 405.80 922.50 L 406.30 923.20 L 406.40 924.20 L 403.50 970.30 L 402.40 1005.70 L 402.40 1017.90 L 402.90 1034.30 L 403.30 1035.80 L 404.20 1037.00 L 405.50 1037.80 L 407.10 1038.10 L 442.20 1037.50 L 463.00 1037.80 L 494.10 1039.00 L 519.00 1040.60 L 535.80 1042.10 L 536.70 1042.40 L 537.60 1043.70 L 537.20 1045.30 L 536.50 1045.90 L 505.90 1059.50 L 483.80 1068.60 L 459.00 1078.20 L 429.60 1088.80 L 398.90 1099.40 L 397.70 1099.90 L 395.80 1101.80 L 392.20 1111.50 L 387.60 1127.10 L 381.20 1151.00 L 373.30 1184.60 L 368.30 1208.30 L 364.80 1226.80 L 360.40 1255.60 L 359.20 1266.10 L 358.40 1277.50 L 337.90 1416.60 L 335.70 1374.80 L 333.20 1315.20 L 331.40 1246.50 L 331.10 1213.10 L 331.70 1169.20 L 332.90 1136.60 L 334.40 1114.30 L 335.60 1101.30 L 335.30 1098.50 L 333.90 1096.30 L 331.60 1094.90 L 310.90 1087.00 L 293.00 1079.20 L 267.20 1067.00 L 253.10 1059.50 L 252.50 1058.90 L 252.10 1057.50 L 252.90 1056.20 L 253.70 1055.80 L 281.80 1050.30 L 301.30 1047.10 L 315.90 1045.10 L 343.20 1042.50 Z" fill="#fccd11" fill-rule="nonzero" group-id="1,3,12,23" node-id="252" stroke="none" target-height="494.59998" target-width="285.49997" target-x="252.1" target-y="922"></path></g><path d="M 877.40 1156.80 L 877.10 1155.50 L 875.60 1153.40 L 873.30 1152.40 L 871.90 1152.40 L 834.30 1155.60 L 798.20 1157.80 L 765.50 1158.80 L 750.20 1158.70 L 736.10 1158.30 L 725.60 1157.60 L 716.10 1156.60 L 709.40 1155.50 L 699.90 1153.00 L 695.40 1150.70 L 694.30 1149.70 L 692.30 1146.50 L 689.60 1138.90 L 685.60 1121.30 L 681.50 1097.20 L 677.50 1068.60 L 673.70 1037.10 L 670.10 1004.70 L 664.10 942.60 L 663.50 941.50 L 661.60 939.80 L 659.00 939.30 L 657.70 939.60 L 655.60 941.10 L 654.50 943.40 L 654.40 944.70 L 660.90 1012.70 L 666.80 1063.70 L 661.80 1057.30 L 653.00 1044.10 L 649.10 1037.30 L 642.50 1024.20 L 638.20 1014.40 L 632.00 997.20 L 629.90 990.20 L 625.90 974.10 L 625.20 973.10 L 623.10 971.60 L 620.50 971.40 L 618.20 972.50 L 616.70 974.60 L 616.40 975.80 L 616.50 977.20 L 619.00 988.20 L 623.70 1004.30 L 630.00 1021.00 L 636.80 1035.80 L 645.20 1050.70 L 650.20 1058.30 L 655.50 1065.70 L 661.40 1072.90 L 667.90 1079.80 L 669.00 1080.70 L 671.30 1096.40 L 675.20 1120.10 L 676.90 1128.70 L 680.10 1141.80 L 681.60 1146.60 L 684.10 1152.40 L 686.50 1156.00 L 690.60 1159.50 L 696.30 1162.30 L 699.60 1163.40 L 709.20 1165.60 L 717.80 1166.90 L 729.30 1167.90 L 742.00 1168.50 L 770.80 1168.70 L 811.40 1167.10 L 835.10 1165.60 L 872.90 1162.30 L 874.30 1162.00 L 876.30 1160.50 L 877.30 1158.20 L 877.40 1156.80 Z" fill="#ffffff" fill-rule="nonzero" group-id="1,3" node-id="256" stroke="none" target-height="229.39996" target-width="261" target-x="616.4" target-y="939.3"></path></g></g></svg>